<svg width="35" height="25" viewBox="0 0 35 25" fill="none" xmlns="http://www.w3.org/2000/svg">
<rect x="0.5" y="0.698242" width="34" height="23" rx="3.5" fill="white" stroke="#CCCCCC"/>
<path fill-rule="evenodd" clip-rule="evenodd" d="M17.75 17.3552C16.5584 18.3835 15.0128 19.0042 13.3238 19.0042C9.55511 19.0042 6.5 15.9136 6.5 12.1012C6.5 8.28881 9.55511 5.19824 13.3238 5.19824C15.0128 5.19824 16.5584 5.81899 17.75 6.84728C18.9416 5.81899 20.4872 5.19824 22.1762 5.19824C25.9449 5.19824 29 8.28881 29 12.1012C29 15.9136 25.9449 19.0042 22.1762 19.0042C20.4872 19.0042 18.9416 18.3835 17.75 17.3552Z" fill="#ED0006"/>
<path fill-rule="evenodd" clip-rule="evenodd" d="M17.75 17.3552C19.2172 16.089 20.1475 14.205 20.1475 12.1012C20.1475 9.99741 19.2172 8.11341 17.75 6.84728C18.9416 5.81899 20.4872 5.19824 22.1762 5.19824C25.9449 5.19824 29 8.28881 29 12.1012C29 15.9136 25.9449 19.0042 22.1762 19.0042C20.4872 19.0042 18.9416 18.3835 17.75 17.3552Z" fill="#F9A000"/>
<path fill-rule="evenodd" clip-rule="evenodd" d="M17.75 6.84717C19.2172 8.1133 20.1476 9.99729 20.1476 12.1011C20.1476 14.2049 19.2172 16.0889 17.75 17.355C16.2829 16.0889 15.3525 14.2049 15.3525 12.1011C15.3525 9.99729 16.2829 8.1133 17.75 6.84717Z" fill="#FF5E00"/>
</svg>
