<svg width="35" height="25" viewBox="0 0 35 25" fill="none" xmlns="http://www.w3.org/2000/svg">
<rect x="0.5" y="1" width="34" height="23" rx="3.5" fill="white" stroke="#CCCCCC"/>
<path fill-rule="evenodd" clip-rule="evenodd" d="M8.3462 9.43296C8.81624 9.47261 9.28628 9.19506 9.58006 8.84316C9.86894 8.48135 10.0599 7.99563 10.0109 7.5C9.59475 7.51983 9.08064 7.77755 8.78686 8.13936C8.51757 8.45161 8.28745 8.95715 8.3462 9.43296ZM13.9377 15.8167V8.08981H16.8021C18.2807 8.08981 19.3138 9.12072 19.3138 10.6274C19.3138 12.1342 18.2611 13.175 16.7629 13.175H15.1226V15.8167H13.9377ZM10.006 9.52714C9.5919 9.50301 9.21406 9.6532 8.90886 9.77451C8.71246 9.85257 8.54614 9.91868 8.41961 9.91868C8.27762 9.91868 8.10444 9.84904 7.90999 9.77085C7.65521 9.66839 7.36392 9.55125 7.05845 9.55687C6.35829 9.56679 5.70709 9.96825 5.34966 10.6076C4.61522 11.8863 5.1587 13.7796 5.86866 14.8205C6.2163 15.3359 6.63248 15.9009 7.18086 15.8811C7.42211 15.8719 7.59566 15.7974 7.77526 15.7202C7.98203 15.6314 8.19683 15.5391 8.53223 15.5391C8.85599 15.5391 9.0614 15.629 9.25858 15.7152C9.44606 15.7973 9.62611 15.876 9.89339 15.8712C10.4614 15.8613 10.8188 15.3557 11.1664 14.8403C11.5416 14.2871 11.7064 13.7471 11.7314 13.6652L11.7344 13.6557C11.7338 13.6551 11.7291 13.653 11.721 13.6492C11.5956 13.5911 10.637 13.1469 10.6278 11.9557C10.6186 10.9559 11.3881 10.4494 11.5093 10.3696L11.5093 10.3696C11.5166 10.3648 11.5216 10.3615 11.5238 10.3598C11.0342 9.62626 10.2704 9.54696 10.006 9.52714ZM21.478 15.8761C22.2223 15.8761 22.9126 15.4945 23.226 14.8898H23.2505V15.8166H24.3472V11.9706C24.3472 10.8554 23.4659 10.1367 22.1096 10.1367C20.8513 10.1367 19.921 10.8653 19.8867 11.8665H20.9541C21.0423 11.3907 21.478 11.0784 22.0754 11.0784C22.8 11.0784 23.2064 11.4204 23.2064 12.0499V12.4761L21.7277 12.5653C20.3519 12.6496 19.6077 13.2195 19.6077 14.2108C19.6077 15.212 20.3764 15.8761 21.478 15.8761ZM21.7962 14.9592C21.1646 14.9592 20.7631 14.6519 20.7631 14.1811C20.7631 13.6954 21.1499 13.4129 21.8893 13.3683L23.2063 13.284V13.7202C23.2063 14.4438 22.5992 14.9592 21.7962 14.9592ZM27.9851 16.119C27.5102 17.4721 26.9667 17.9181 25.8112 17.9181C25.7231 17.9181 25.4293 17.9082 25.3607 17.8884V16.9616C25.4342 16.9715 25.6153 16.9814 25.7084 16.9814C26.2323 16.9814 26.526 16.7584 26.7072 16.1785L26.8149 15.8365L24.8075 10.2111H26.0462L27.4416 14.7758H27.4661L28.8616 10.2111H30.066L27.9851 16.119ZM15.1225 9.10087H16.4886C17.5168 9.10087 18.1044 9.65598 18.1044 10.6324C18.1044 11.6088 17.5168 12.1688 16.4837 12.1688H15.1225V9.10087Z" fill="black"/>
</svg>
